<mxfile host="app.diagrams.net" modified="2020-10-18T12:01:45.414Z" agent="5.0 (Windows NT 10.0; Win64; x64) AppleWebKit/537.36 (KHTML, like Gecko) Chrome/86.0.4240.99 Safari/537.36" etag="V2vPgkHkwaLhrlfAIqzA" version="13.8.0" type="github">
  <diagram id="C5RBs43oDa-KdzZeNtuy" name="Page-1">
    <mxGraphModel dx="3707" dy="4831" grid="1" gridSize="10" guides="1" tooltips="1" connect="1" arrows="1" fold="1" page="1" pageScale="1" pageWidth="1169" pageHeight="827" background="#95CCA9" math="0" shadow="0">
      <root>
        <mxCell id="WIyWlLk6GJQsqaUBKTNV-0" />
        <mxCell id="WIyWlLk6GJQsqaUBKTNV-1" parent="WIyWlLk6GJQsqaUBKTNV-0" />
        <mxCell id="OOa8Zx6JFRRjNTfHdb-P-46" style="edgeStyle=orthogonalEdgeStyle;rounded=0;orthogonalLoop=1;jettySize=auto;html=1;exitX=0.25;exitY=0;exitDx=0;exitDy=0;entryX=0.153;entryY=0.022;entryDx=0;entryDy=0;entryPerimeter=0;" parent="WIyWlLk6GJQsqaUBKTNV-1" source="OOa8Zx6JFRRjNTfHdb-P-38" target="OOa8Zx6JFRRjNTfHdb-P-38" edge="1">
          <mxGeometry relative="1" as="geometry" />
        </mxCell>
        <mxCell id="OOa8Zx6JFRRjNTfHdb-P-123" style="edgeStyle=orthogonalEdgeStyle;rounded=0;orthogonalLoop=1;jettySize=auto;html=1;startArrow=none;startFill=0;endArrow=diamondThin;endFill=1;" parent="WIyWlLk6GJQsqaUBKTNV-1" source="OOa8Zx6JFRRjNTfHdb-P-61" edge="1">
          <mxGeometry relative="1" as="geometry">
            <Array as="points">
              <mxPoint x="-180" y="-1191" />
              <mxPoint x="-180" y="-1075" />
            </Array>
            <mxPoint x="-550" y="-1075" as="targetPoint" />
          </mxGeometry>
        </mxCell>
        <mxCell id="OOa8Zx6JFRRjNTfHdb-P-129" value="1..*" style="edgeLabel;html=1;align=center;verticalAlign=middle;resizable=0;points=[];" parent="OOa8Zx6JFRRjNTfHdb-P-123" vertex="1" connectable="0">
          <mxGeometry x="0.8824" y="-6" relative="1" as="geometry">
            <mxPoint as="offset" />
          </mxGeometry>
        </mxCell>
        <mxCell id="S5NBLpRcLbp1XvmpKD1v-24" value="borrows&amp;gt;" style="edgeLabel;html=1;align=center;verticalAlign=middle;resizable=0;points=[];" parent="OOa8Zx6JFRRjNTfHdb-P-123" vertex="1" connectable="0">
          <mxGeometry x="0.2524" y="-15" relative="1" as="geometry">
            <mxPoint x="-20" as="offset" />
          </mxGeometry>
        </mxCell>
        <mxCell id="reEjAdABZrWmajp2sIy9-5" value="0..1" style="edgeLabel;html=1;align=center;verticalAlign=middle;resizable=0;points=[];" parent="OOa8Zx6JFRRjNTfHdb-P-123" vertex="1" connectable="0">
          <mxGeometry x="-0.931" y="-11" relative="1" as="geometry">
            <mxPoint x="-1" as="offset" />
          </mxGeometry>
        </mxCell>
        <mxCell id="OOa8Zx6JFRRjNTfHdb-P-124" style="edgeStyle=orthogonalEdgeStyle;rounded=0;orthogonalLoop=1;jettySize=auto;html=1;startArrow=none;startFill=0;endArrow=diamondThin;endFill=0;exitX=0;exitY=0.5;exitDx=0;exitDy=0;" parent="WIyWlLk6GJQsqaUBKTNV-1" edge="1" source="OOa8Zx6JFRRjNTfHdb-P-162">
          <mxGeometry relative="1" as="geometry">
            <Array as="points">
              <mxPoint x="380" y="-629" />
              <mxPoint x="-710" y="-629" />
            </Array>
            <mxPoint x="380" y="-585.9999999999995" as="sourcePoint" />
            <mxPoint x="-710" y="-810" as="targetPoint" />
          </mxGeometry>
        </mxCell>
        <mxCell id="OOa8Zx6JFRRjNTfHdb-P-130" value="1..*" style="edgeLabel;html=1;align=center;verticalAlign=middle;resizable=0;points=[];" parent="OOa8Zx6JFRRjNTfHdb-P-124" vertex="1" connectable="0">
          <mxGeometry x="0.8679" y="-5" relative="1" as="geometry">
            <mxPoint x="-15" y="-10.140000000000002" as="offset" />
          </mxGeometry>
        </mxCell>
        <mxCell id="3IWa1ClItNDrsiEhTsQV-49" value="collects &amp;gt;&amp;nbsp;" style="edgeLabel;html=1;align=center;verticalAlign=middle;resizable=0;points=[];" parent="OOa8Zx6JFRRjNTfHdb-P-124" vertex="1" connectable="0">
          <mxGeometry x="0.0451" y="-9" relative="1" as="geometry">
            <mxPoint x="28.57" y="-5" as="offset" />
          </mxGeometry>
        </mxCell>
        <mxCell id="fvHBKpIhvFRIfqYmbVqE-3" value="0..1" style="edgeLabel;html=1;align=center;verticalAlign=middle;resizable=0;points=[];" vertex="1" connectable="0" parent="OOa8Zx6JFRRjNTfHdb-P-124">
          <mxGeometry x="-0.8188" y="-18" relative="1" as="geometry">
            <mxPoint x="-1" as="offset" />
          </mxGeometry>
        </mxCell>
        <mxCell id="OOa8Zx6JFRRjNTfHdb-P-164" style="edgeStyle=orthogonalEdgeStyle;rounded=0;orthogonalLoop=1;jettySize=auto;html=1;startArrow=oval;startFill=1;endArrow=none;endFill=0;" parent="WIyWlLk6GJQsqaUBKTNV-1" source="OOa8Zx6JFRRjNTfHdb-P-32" edge="1">
          <mxGeometry relative="1" as="geometry">
            <mxPoint x="-550" y="-1163" as="targetPoint" />
            <Array as="points">
              <mxPoint x="-300" y="-1273" />
              <mxPoint x="-300" y="-1163" />
            </Array>
          </mxGeometry>
        </mxCell>
        <mxCell id="OOa8Zx6JFRRjNTfHdb-P-169" value="1..*" style="edgeLabel;html=1;align=center;verticalAlign=middle;resizable=0;points=[];" parent="OOa8Zx6JFRRjNTfHdb-P-164" vertex="1" connectable="0">
          <mxGeometry x="0.8686" y="-5" relative="1" as="geometry">
            <mxPoint x="-1" as="offset" />
          </mxGeometry>
        </mxCell>
        <mxCell id="3IWa1ClItNDrsiEhTsQV-50" value="has &amp;gt;" style="edgeLabel;html=1;align=center;verticalAlign=middle;resizable=0;points=[];" parent="OOa8Zx6JFRRjNTfHdb-P-164" vertex="1" connectable="0">
          <mxGeometry x="0.3604" y="-8" relative="1" as="geometry">
            <mxPoint as="offset" />
          </mxGeometry>
        </mxCell>
        <mxCell id="reEjAdABZrWmajp2sIy9-6" value="0..1" style="edgeLabel;html=1;align=center;verticalAlign=middle;resizable=0;points=[];" parent="OOa8Zx6JFRRjNTfHdb-P-164" vertex="1" connectable="0">
          <mxGeometry x="-0.9353" y="-11" relative="1" as="geometry">
            <mxPoint x="-1" as="offset" />
          </mxGeometry>
        </mxCell>
        <mxCell id="OOa8Zx6JFRRjNTfHdb-P-166" style="edgeStyle=orthogonalEdgeStyle;rounded=0;orthogonalLoop=1;jettySize=auto;html=1;startArrow=oval;startFill=1;endArrow=none;endFill=0;entryX=0.987;entryY=-0.141;entryDx=0;entryDy=0;entryPerimeter=0;" parent="WIyWlLk6GJQsqaUBKTNV-1" target="OOa8Zx6JFRRjNTfHdb-P-174" edge="1">
          <mxGeometry relative="1" as="geometry">
            <mxPoint x="-550" y="-820" as="targetPoint" />
            <Array as="points">
              <mxPoint x="100" y="-685" />
              <mxPoint x="100" y="-770" />
              <mxPoint x="-360" y="-770" />
              <mxPoint x="-360" y="-880" />
            </Array>
            <mxPoint x="370" y="-685" as="sourcePoint" />
          </mxGeometry>
        </mxCell>
        <mxCell id="OOa8Zx6JFRRjNTfHdb-P-168" value="1..*" style="edgeLabel;html=1;align=center;verticalAlign=middle;resizable=0;points=[];" parent="OOa8Zx6JFRRjNTfHdb-P-166" vertex="1" connectable="0">
          <mxGeometry x="0.9304" y="-7" relative="1" as="geometry">
            <mxPoint as="offset" />
          </mxGeometry>
        </mxCell>
        <mxCell id="3IWa1ClItNDrsiEhTsQV-48" value="has &amp;gt;" style="edgeLabel;html=1;align=center;verticalAlign=middle;resizable=0;points=[];" parent="OOa8Zx6JFRRjNTfHdb-P-166" vertex="1" connectable="0">
          <mxGeometry x="0.2474" y="-8" relative="1" as="geometry">
            <mxPoint x="1" as="offset" />
          </mxGeometry>
        </mxCell>
        <mxCell id="fvHBKpIhvFRIfqYmbVqE-2" value="0..1" style="edgeLabel;html=1;align=center;verticalAlign=middle;resizable=0;points=[];" vertex="1" connectable="0" parent="OOa8Zx6JFRRjNTfHdb-P-166">
          <mxGeometry x="-0.4829" y="-241" relative="1" as="geometry">
            <mxPoint x="-1" as="offset" />
          </mxGeometry>
        </mxCell>
        <mxCell id="S5NBLpRcLbp1XvmpKD1v-16" style="edgeStyle=orthogonalEdgeStyle;rounded=0;orthogonalLoop=1;jettySize=auto;html=1;entryX=0.624;entryY=-0.028;entryDx=0;entryDy=0;entryPerimeter=0;startArrow=classic;startFill=1;endArrow=none;endFill=0;" parent="WIyWlLk6GJQsqaUBKTNV-1" source="OOa8Zx6JFRRjNTfHdb-P-48" target="OOa8Zx6JFRRjNTfHdb-P-61" edge="1">
          <mxGeometry relative="1" as="geometry" />
        </mxCell>
        <mxCell id="S5NBLpRcLbp1XvmpKD1v-23" value="&amp;lt; isLoaned" style="edgeLabel;html=1;align=center;verticalAlign=middle;resizable=0;points=[];" parent="S5NBLpRcLbp1XvmpKD1v-16" vertex="1" connectable="0">
          <mxGeometry x="-0.5445" y="14" relative="1" as="geometry">
            <mxPoint x="-1" as="offset" />
          </mxGeometry>
        </mxCell>
        <mxCell id="OOa8Zx6JFRRjNTfHdb-P-48" value="Book" style="swimlane;fontStyle=1;align=center;verticalAlign=top;childLayout=stackLayout;horizontal=1;startSize=26;horizontalStack=0;resizeParent=1;resizeParentMax=0;resizeLast=0;collapsible=1;marginBottom=0;" parent="WIyWlLk6GJQsqaUBKTNV-1" vertex="1">
          <mxGeometry x="-240" y="-2160" width="240" height="242" as="geometry" />
        </mxCell>
        <mxCell id="OOa8Zx6JFRRjNTfHdb-P-8" value="author [0..1]" style="text;strokeColor=none;fillColor=none;align=left;verticalAlign=top;spacingLeft=4;spacingRight=4;overflow=hidden;rotatable=0;points=[[0,0.5],[1,0.5]];portConstraint=eastwest;" parent="OOa8Zx6JFRRjNTfHdb-P-48" vertex="1">
          <mxGeometry y="26" width="240" height="26" as="geometry" />
        </mxCell>
        <mxCell id="OOa8Zx6JFRRjNTfHdb-P-10" value="publisher [0..1]" style="text;strokeColor=none;fillColor=none;align=left;verticalAlign=top;spacingLeft=4;spacingRight=4;overflow=hidden;rotatable=0;points=[[0,0.5],[1,0.5]];portConstraint=eastwest;" parent="OOa8Zx6JFRRjNTfHdb-P-48" vertex="1">
          <mxGeometry y="52" width="240" height="26" as="geometry" />
        </mxCell>
        <mxCell id="OOa8Zx6JFRRjNTfHdb-P-9" value="isbn" style="text;strokeColor=none;fillColor=none;align=left;verticalAlign=top;spacingLeft=4;spacingRight=4;overflow=hidden;rotatable=0;points=[[0,0.5],[1,0.5]];portConstraint=eastwest;" parent="OOa8Zx6JFRRjNTfHdb-P-48" vertex="1">
          <mxGeometry y="78" width="240" height="26" as="geometry" />
        </mxCell>
        <mxCell id="OOa8Zx6JFRRjNTfHdb-P-50" value="" style="line;strokeWidth=1;fillColor=none;align=left;verticalAlign=middle;spacingTop=-1;spacingLeft=3;spacingRight=3;rotatable=0;labelPosition=right;points=[];portConstraint=eastwest;" parent="OOa8Zx6JFRRjNTfHdb-P-48" vertex="1">
          <mxGeometry y="104" width="240" height="8" as="geometry" />
        </mxCell>
        <mxCell id="OOa8Zx6JFRRjNTfHdb-P-150" value="Book(isbn, author) : Book" style="text;strokeColor=none;fillColor=none;align=left;verticalAlign=top;spacingLeft=4;spacingRight=4;overflow=hidden;rotatable=0;points=[[0,0.5],[1,0.5]];portConstraint=eastwest;" parent="OOa8Zx6JFRRjNTfHdb-P-48" vertex="1">
          <mxGeometry y="112" width="240" height="26" as="geometry" />
        </mxCell>
        <mxCell id="OOa8Zx6JFRRjNTfHdb-P-151" value="Book(isbn, publisher) : Book" style="text;strokeColor=none;fillColor=none;align=left;verticalAlign=top;spacingLeft=4;spacingRight=4;overflow=hidden;rotatable=0;points=[[0,0.5],[1,0.5]];portConstraint=eastwest;" parent="OOa8Zx6JFRRjNTfHdb-P-48" vertex="1">
          <mxGeometry y="138" width="240" height="26" as="geometry" />
        </mxCell>
        <mxCell id="t2H_Y5Kgu8AQuPbzP4-B-9" value="addBook() : Book" style="text;strokeColor=none;fillColor=none;align=left;verticalAlign=top;spacingLeft=4;spacingRight=4;overflow=hidden;rotatable=0;points=[[0,0.5],[1,0.5]];portConstraint=eastwest;" parent="OOa8Zx6JFRRjNTfHdb-P-48" vertex="1">
          <mxGeometry y="164" width="240" height="26" as="geometry" />
        </mxCell>
        <mxCell id="t2H_Y5Kgu8AQuPbzP4-B-6" value="editBook() : Book" style="text;strokeColor=none;fillColor=none;align=left;verticalAlign=top;spacingLeft=4;spacingRight=4;overflow=hidden;rotatable=0;points=[[0,0.5],[1,0.5]];portConstraint=eastwest;" parent="OOa8Zx6JFRRjNTfHdb-P-48" vertex="1">
          <mxGeometry y="190" width="240" height="26" as="geometry" />
        </mxCell>
        <mxCell id="t2H_Y5Kgu8AQuPbzP4-B-8" value="deleteBook(book : Book)" style="text;strokeColor=none;fillColor=none;align=left;verticalAlign=top;spacingLeft=4;spacingRight=4;overflow=hidden;rotatable=0;points=[[0,0.5],[1,0.5]];portConstraint=eastwest;" parent="OOa8Zx6JFRRjNTfHdb-P-48" vertex="1">
          <mxGeometry y="216" width="240" height="26" as="geometry" />
        </mxCell>
        <mxCell id="S5NBLpRcLbp1XvmpKD1v-15" style="edgeStyle=orthogonalEdgeStyle;rounded=0;orthogonalLoop=1;jettySize=auto;html=1;startArrow=classic;startFill=1;endArrow=none;endFill=0;" parent="WIyWlLk6GJQsqaUBKTNV-1" source="OOa8Zx6JFRRjNTfHdb-P-53" edge="1">
          <mxGeometry relative="1" as="geometry">
            <mxPoint x="159" y="-1401" as="targetPoint" />
            <Array as="points">
              <mxPoint x="-480" y="-1660" />
              <mxPoint x="159" y="-1660" />
            </Array>
          </mxGeometry>
        </mxCell>
        <mxCell id="S5NBLpRcLbp1XvmpKD1v-22" value="&amp;lt; isLoaned" style="edgeLabel;html=1;align=center;verticalAlign=middle;resizable=0;points=[];" parent="S5NBLpRcLbp1XvmpKD1v-15" vertex="1" connectable="0">
          <mxGeometry x="0.0535" y="11" relative="1" as="geometry">
            <mxPoint x="-1" as="offset" />
          </mxGeometry>
        </mxCell>
        <mxCell id="OOa8Zx6JFRRjNTfHdb-P-53" value="Game" style="swimlane;fontStyle=1;align=center;verticalAlign=top;childLayout=stackLayout;horizontal=1;startSize=26;horizontalStack=0;resizeParent=1;resizeParentMax=0;resizeLast=0;collapsible=1;marginBottom=0;" parent="WIyWlLk6GJQsqaUBKTNV-1" vertex="1">
          <mxGeometry x="-600" y="-2160" width="240" height="190" as="geometry" />
        </mxCell>
        <mxCell id="OOa8Zx6JFRRjNTfHdb-P-12" value="platform" style="text;strokeColor=none;fillColor=none;align=left;verticalAlign=top;spacingLeft=4;spacingRight=4;overflow=hidden;rotatable=0;points=[[0,0.5],[1,0.5]];portConstraint=eastwest;" parent="OOa8Zx6JFRRjNTfHdb-P-53" vertex="1">
          <mxGeometry y="26" width="240" height="26" as="geometry" />
        </mxCell>
        <mxCell id="OOa8Zx6JFRRjNTfHdb-P-13" value="publisher" style="text;strokeColor=none;fillColor=none;align=left;verticalAlign=top;spacingLeft=4;spacingRight=4;overflow=hidden;rotatable=0;points=[[0,0.5],[1,0.5]];portConstraint=eastwest;" parent="OOa8Zx6JFRRjNTfHdb-P-53" vertex="1">
          <mxGeometry y="52" width="240" height="26" as="geometry" />
        </mxCell>
        <mxCell id="OOa8Zx6JFRRjNTfHdb-P-55" value="" style="line;strokeWidth=1;fillColor=none;align=left;verticalAlign=middle;spacingTop=-1;spacingLeft=3;spacingRight=3;rotatable=0;labelPosition=right;points=[];portConstraint=eastwest;" parent="OOa8Zx6JFRRjNTfHdb-P-53" vertex="1">
          <mxGeometry y="78" width="240" height="8" as="geometry" />
        </mxCell>
        <mxCell id="OOa8Zx6JFRRjNTfHdb-P-152" value="Game(platform, publisher) : Game" style="text;strokeColor=none;fillColor=none;align=left;verticalAlign=top;spacingLeft=4;spacingRight=4;overflow=hidden;rotatable=0;points=[[0,0.5],[1,0.5]];portConstraint=eastwest;" parent="OOa8Zx6JFRRjNTfHdb-P-53" vertex="1">
          <mxGeometry y="86" width="240" height="26" as="geometry" />
        </mxCell>
        <mxCell id="t2H_Y5Kgu8AQuPbzP4-B-12" value="addGame() : Game" style="text;strokeColor=none;fillColor=none;align=left;verticalAlign=top;spacingLeft=4;spacingRight=4;overflow=hidden;rotatable=0;points=[[0,0.5],[1,0.5]];portConstraint=eastwest;" parent="OOa8Zx6JFRRjNTfHdb-P-53" vertex="1">
          <mxGeometry y="112" width="240" height="26" as="geometry" />
        </mxCell>
        <mxCell id="t2H_Y5Kgu8AQuPbzP4-B-11" value="editGame() : Game" style="text;strokeColor=none;fillColor=none;align=left;verticalAlign=top;spacingLeft=4;spacingRight=4;overflow=hidden;rotatable=0;points=[[0,0.5],[1,0.5]];portConstraint=eastwest;" parent="OOa8Zx6JFRRjNTfHdb-P-53" vertex="1">
          <mxGeometry y="138" width="240" height="26" as="geometry" />
        </mxCell>
        <mxCell id="3IWa1ClItNDrsiEhTsQV-0" value="deleteGame(game : Game)" style="text;strokeColor=none;fillColor=none;align=left;verticalAlign=top;spacingLeft=4;spacingRight=4;overflow=hidden;rotatable=0;points=[[0,0.5],[1,0.5]];portConstraint=eastwest;" parent="OOa8Zx6JFRRjNTfHdb-P-53" vertex="1">
          <mxGeometry y="164" width="240" height="26" as="geometry" />
        </mxCell>
        <mxCell id="OOa8Zx6JFRRjNTfHdb-P-57" value="Film" style="swimlane;fontStyle=1;align=center;verticalAlign=top;childLayout=stackLayout;horizontal=1;startSize=26;horizontalStack=0;resizeParent=1;resizeParentMax=0;resizeLast=0;collapsible=1;marginBottom=0;" parent="WIyWlLk6GJQsqaUBKTNV-1" vertex="1">
          <mxGeometry x="-960" y="-2160" width="240" height="190" as="geometry" />
        </mxCell>
        <mxCell id="OOa8Zx6JFRRjNTfHdb-P-17" value="director" style="text;strokeColor=none;fillColor=none;align=left;verticalAlign=top;spacingLeft=4;spacingRight=4;overflow=hidden;rotatable=0;points=[[0,0.5],[1,0.5]];portConstraint=eastwest;" parent="OOa8Zx6JFRRjNTfHdb-P-57" vertex="1">
          <mxGeometry y="26" width="240" height="26" as="geometry" />
        </mxCell>
        <mxCell id="OOa8Zx6JFRRjNTfHdb-P-16" value="ageRating" style="text;strokeColor=none;fillColor=none;align=left;verticalAlign=top;spacingLeft=4;spacingRight=4;overflow=hidden;rotatable=0;points=[[0,0.5],[1,0.5]];portConstraint=eastwest;" parent="OOa8Zx6JFRRjNTfHdb-P-57" vertex="1">
          <mxGeometry y="52" width="240" height="26" as="geometry" />
        </mxCell>
        <mxCell id="OOa8Zx6JFRRjNTfHdb-P-59" value="" style="line;strokeWidth=1;fillColor=none;align=left;verticalAlign=middle;spacingTop=-1;spacingLeft=3;spacingRight=3;rotatable=0;labelPosition=right;points=[];portConstraint=eastwest;" parent="OOa8Zx6JFRRjNTfHdb-P-57" vertex="1">
          <mxGeometry y="78" width="240" height="8" as="geometry" />
        </mxCell>
        <mxCell id="OOa8Zx6JFRRjNTfHdb-P-153" value="Film(director, ageRating) : Film" style="text;strokeColor=none;fillColor=none;align=left;verticalAlign=top;spacingLeft=4;spacingRight=4;overflow=hidden;rotatable=0;points=[[0,0.5],[1,0.5]];portConstraint=eastwest;" parent="OOa8Zx6JFRRjNTfHdb-P-57" vertex="1">
          <mxGeometry y="86" width="240" height="26" as="geometry" />
        </mxCell>
        <mxCell id="t2H_Y5Kgu8AQuPbzP4-B-14" value="addFilm() : Film" style="text;strokeColor=none;fillColor=none;align=left;verticalAlign=top;spacingLeft=4;spacingRight=4;overflow=hidden;rotatable=0;points=[[0,0.5],[1,0.5]];portConstraint=eastwest;" parent="OOa8Zx6JFRRjNTfHdb-P-57" vertex="1">
          <mxGeometry y="112" width="240" height="26" as="geometry" />
        </mxCell>
        <mxCell id="t2H_Y5Kgu8AQuPbzP4-B-13" value="editFilm() : Film" style="text;strokeColor=none;fillColor=none;align=left;verticalAlign=top;spacingLeft=4;spacingRight=4;overflow=hidden;rotatable=0;points=[[0,0.5],[1,0.5]];portConstraint=eastwest;" parent="OOa8Zx6JFRRjNTfHdb-P-57" vertex="1">
          <mxGeometry y="138" width="240" height="26" as="geometry" />
        </mxCell>
        <mxCell id="t2H_Y5Kgu8AQuPbzP4-B-10" value="deleteFilm(film : Film)" style="text;strokeColor=none;fillColor=none;align=left;verticalAlign=top;spacingLeft=4;spacingRight=4;overflow=hidden;rotatable=0;points=[[0,0.5],[1,0.5]];portConstraint=eastwest;" parent="OOa8Zx6JFRRjNTfHdb-P-57" vertex="1">
          <mxGeometry y="164" width="240" height="26" as="geometry" />
        </mxCell>
        <mxCell id="3IWa1ClItNDrsiEhTsQV-11" value="1..1" style="edgeLabel;html=1;align=center;verticalAlign=middle;resizable=0;points=[];" parent="WIyWlLk6GJQsqaUBKTNV-1" vertex="1" connectable="0">
          <mxGeometry x="-844" y="-2166.6666666666665" as="geometry">
            <mxPoint x="339" y="-6" as="offset" />
          </mxGeometry>
        </mxCell>
        <mxCell id="3IWa1ClItNDrsiEhTsQV-12" value="1..1" style="edgeLabel;html=1;align=center;verticalAlign=middle;resizable=0;points=[];" parent="WIyWlLk6GJQsqaUBKTNV-1" vertex="1" connectable="0">
          <mxGeometry x="-834" y="-2156.6666666666665" as="geometry">
            <mxPoint x="766" y="-12" as="offset" />
          </mxGeometry>
        </mxCell>
        <mxCell id="OOa8Zx6JFRRjNTfHdb-P-38" value="Item" style="swimlane;fontStyle=3;align=center;verticalAlign=top;childLayout=stackLayout;horizontal=1;startSize=26;horizontalStack=0;resizeParent=1;resizeParentMax=0;resizeLast=0;collapsible=1;marginBottom=0;" parent="WIyWlLk6GJQsqaUBKTNV-1" vertex="1">
          <mxGeometry x="-370" y="-2820" width="330" height="242" as="geometry" />
        </mxCell>
        <mxCell id="OOa8Zx6JFRRjNTfHdb-P-47" value="itemId" style="text;strokeColor=none;fillColor=none;align=left;verticalAlign=top;spacingLeft=4;spacingRight=4;overflow=hidden;rotatable=0;points=[[0,0.5],[1,0.5]];portConstraint=eastwest;" parent="OOa8Zx6JFRRjNTfHdb-P-38" vertex="1">
          <mxGeometry y="26" width="330" height="26" as="geometry" />
        </mxCell>
        <mxCell id="OOa8Zx6JFRRjNTfHdb-P-5" value="itemTitle" style="text;strokeColor=none;fillColor=none;align=left;verticalAlign=top;spacingLeft=4;spacingRight=4;overflow=hidden;rotatable=0;points=[[0,0.5],[1,0.5]];portConstraint=eastwest;" parent="OOa8Zx6JFRRjNTfHdb-P-38" vertex="1">
          <mxGeometry y="52" width="330" height="26" as="geometry" />
        </mxCell>
        <mxCell id="OOa8Zx6JFRRjNTfHdb-P-6" value="yearOfPublication [0..1]" style="text;strokeColor=none;fillColor=none;align=left;verticalAlign=top;spacingLeft=4;spacingRight=4;overflow=hidden;rotatable=0;points=[[0,0.5],[1,0.5]];portConstraint=eastwest;" parent="OOa8Zx6JFRRjNTfHdb-P-38" vertex="1">
          <mxGeometry y="78" width="330" height="26" as="geometry" />
        </mxCell>
        <mxCell id="OOa8Zx6JFRRjNTfHdb-P-40" value="" style="line;strokeWidth=1;fillColor=none;align=left;verticalAlign=middle;spacingTop=-1;spacingLeft=3;spacingRight=3;rotatable=0;labelPosition=right;points=[];portConstraint=eastwest;" parent="OOa8Zx6JFRRjNTfHdb-P-38" vertex="1">
          <mxGeometry y="104" width="330" height="8" as="geometry" />
        </mxCell>
        <mxCell id="OOa8Zx6JFRRjNTfHdb-P-149" value="Item(itemId, itemTitle) : Item" style="text;strokeColor=none;fillColor=none;align=left;verticalAlign=top;spacingLeft=4;spacingRight=4;overflow=hidden;rotatable=0;points=[[0,0.5],[1,0.5]];portConstraint=eastwest;fontStyle=2" parent="OOa8Zx6JFRRjNTfHdb-P-38" vertex="1">
          <mxGeometry y="112" width="330" height="26" as="geometry" />
        </mxCell>
        <mxCell id="3IWa1ClItNDrsiEhTsQV-51" value="Item(itemId, itemTitle, yearOfProduction) :Item" style="text;strokeColor=none;fillColor=none;align=left;verticalAlign=top;spacingLeft=4;spacingRight=4;overflow=hidden;rotatable=0;points=[[0,0.5],[1,0.5]];portConstraint=eastwest;fontStyle=2" parent="OOa8Zx6JFRRjNTfHdb-P-38" vertex="1">
          <mxGeometry y="138" width="330" height="26" as="geometry" />
        </mxCell>
        <mxCell id="t2H_Y5Kgu8AQuPbzP4-B-3" value="addItem() : Item" style="text;strokeColor=none;fillColor=none;align=left;verticalAlign=top;spacingLeft=4;spacingRight=4;overflow=hidden;rotatable=0;points=[[0,0.5],[1,0.5]];portConstraint=eastwest;fontStyle=2" parent="OOa8Zx6JFRRjNTfHdb-P-38" vertex="1">
          <mxGeometry y="164" width="330" height="26" as="geometry" />
        </mxCell>
        <mxCell id="t2H_Y5Kgu8AQuPbzP4-B-4" value="editItem(itemId ) : Item" style="text;strokeColor=none;fillColor=none;align=left;verticalAlign=top;spacingLeft=4;spacingRight=4;overflow=hidden;rotatable=0;points=[[0,0.5],[1,0.5]];portConstraint=eastwest;fontStyle=2" parent="OOa8Zx6JFRRjNTfHdb-P-38" vertex="1">
          <mxGeometry y="190" width="330" height="26" as="geometry" />
        </mxCell>
        <mxCell id="OOa8Zx6JFRRjNTfHdb-P-159" value="deleteItem(itemId) : Item" style="text;strokeColor=none;fillColor=none;align=left;verticalAlign=top;spacingLeft=4;spacingRight=4;overflow=hidden;rotatable=0;points=[[0,0.5],[1,0.5]];portConstraint=eastwest;fontStyle=2" parent="OOa8Zx6JFRRjNTfHdb-P-38" vertex="1">
          <mxGeometry y="216" width="330" height="26" as="geometry" />
        </mxCell>
        <mxCell id="3IWa1ClItNDrsiEhTsQV-39" value="" style="endArrow=block;endFill=0;endSize=12;html=1;entryX=0.024;entryY=1.462;entryDx=0;entryDy=0;entryPerimeter=0;" parent="WIyWlLk6GJQsqaUBKTNV-1" edge="1">
          <mxGeometry width="160" relative="1" as="geometry">
            <mxPoint x="-780" y="-2160" as="sourcePoint" />
            <mxPoint x="-362.0799999999999" y="-2539.9880000000003" as="targetPoint" />
          </mxGeometry>
        </mxCell>
        <mxCell id="3IWa1ClItNDrsiEhTsQV-40" value="1..1" style="edgeLabel;html=1;align=center;verticalAlign=middle;resizable=0;points=[];" parent="3IWa1ClItNDrsiEhTsQV-39" vertex="1" connectable="0">
          <mxGeometry x="-0.909" y="16" relative="1" as="geometry">
            <mxPoint x="1" y="-1" as="offset" />
          </mxGeometry>
        </mxCell>
        <mxCell id="S5NBLpRcLbp1XvmpKD1v-26" value="1..*" style="edgeLabel;html=1;align=center;verticalAlign=middle;resizable=0;points=[];" parent="3IWa1ClItNDrsiEhTsQV-39" vertex="1" connectable="0">
          <mxGeometry x="0.8312" y="19" relative="1" as="geometry">
            <mxPoint as="offset" />
          </mxGeometry>
        </mxCell>
        <mxCell id="3IWa1ClItNDrsiEhTsQV-42" value="" style="endArrow=block;endFill=0;endSize=12;html=1;exitX=0.5;exitY=0;exitDx=0;exitDy=0;entryX=0.34;entryY=1.615;entryDx=0;entryDy=0;entryPerimeter=0;" parent="WIyWlLk6GJQsqaUBKTNV-1" source="OOa8Zx6JFRRjNTfHdb-P-53" edge="1">
          <mxGeometry width="160" relative="1" as="geometry">
            <mxPoint x="-260" y="-2130" as="sourcePoint" />
            <mxPoint x="-257.79999999999995" y="-2536.01" as="targetPoint" />
          </mxGeometry>
        </mxCell>
        <mxCell id="S5NBLpRcLbp1XvmpKD1v-28" value="1..*" style="edgeLabel;html=1;align=center;verticalAlign=middle;resizable=0;points=[];" parent="3IWa1ClItNDrsiEhTsQV-42" vertex="1" connectable="0">
          <mxGeometry x="0.7232" y="12" relative="1" as="geometry">
            <mxPoint as="offset" />
          </mxGeometry>
        </mxCell>
        <mxCell id="3IWa1ClItNDrsiEhTsQV-43" value="" style="endArrow=block;endFill=0;endSize=12;html=1;exitX=0.583;exitY=-0.025;exitDx=0;exitDy=0;exitPerimeter=0;entryX=0.772;entryY=1.577;entryDx=0;entryDy=0;entryPerimeter=0;" parent="WIyWlLk6GJQsqaUBKTNV-1" source="OOa8Zx6JFRRjNTfHdb-P-48" edge="1">
          <mxGeometry width="160" relative="1" as="geometry">
            <mxPoint x="-260" y="-2130" as="sourcePoint" />
            <mxPoint x="-115.24000000000001" y="-2536.998" as="targetPoint" />
          </mxGeometry>
        </mxCell>
        <mxCell id="3IWa1ClItNDrsiEhTsQV-44" value="1..*" style="edgeLabel;html=1;align=center;verticalAlign=middle;resizable=0;points=[];" parent="3IWa1ClItNDrsiEhTsQV-43" vertex="1" connectable="0">
          <mxGeometry x="0.8184" y="17" relative="1" as="geometry">
            <mxPoint as="offset" />
          </mxGeometry>
        </mxCell>
        <mxCell id="S5NBLpRcLbp1XvmpKD1v-12" style="edgeStyle=orthogonalEdgeStyle;rounded=0;orthogonalLoop=1;jettySize=auto;html=1;startArrow=none;startFill=0;endArrow=classic;endFill=1;exitX=0.401;exitY=-0.031;exitDx=0;exitDy=0;exitPerimeter=0;entryX=0.344;entryY=1.429;entryDx=0;entryDy=0;entryPerimeter=0;" parent="WIyWlLk6GJQsqaUBKTNV-1" source="OOa8Zx6JFRRjNTfHdb-P-61" target="t2H_Y5Kgu8AQuPbzP4-B-10" edge="1">
          <mxGeometry relative="1" as="geometry">
            <mxPoint x="-876" y="-1860" as="targetPoint" />
            <Array as="points">
              <mxPoint x="198" y="-1510" />
              <mxPoint x="-877" y="-1510" />
            </Array>
          </mxGeometry>
        </mxCell>
        <mxCell id="S5NBLpRcLbp1XvmpKD1v-21" value="&amp;lt; isLoaned" style="edgeLabel;html=1;align=center;verticalAlign=middle;resizable=0;points=[];" parent="S5NBLpRcLbp1XvmpKD1v-12" vertex="1" connectable="0">
          <mxGeometry x="-0.1325" y="-13" relative="1" as="geometry">
            <mxPoint as="offset" />
          </mxGeometry>
        </mxCell>
        <mxCell id="OOa8Zx6JFRRjNTfHdb-P-61" value="ItemOnLoan" style="swimlane;fontStyle=1;align=center;verticalAlign=top;childLayout=stackLayout;horizontal=1;startSize=26;horizontalStack=0;resizeParent=1;resizeParentMax=0;resizeLast=0;collapsible=1;marginBottom=0;" parent="WIyWlLk6GJQsqaUBKTNV-1" vertex="1">
          <mxGeometry x="30" y="-1390" width="420" height="320" as="geometry" />
        </mxCell>
        <mxCell id="OOa8Zx6JFRRjNTfHdb-P-29" value="customerId" style="text;strokeColor=none;fillColor=none;align=left;verticalAlign=top;spacingLeft=4;spacingRight=4;overflow=hidden;rotatable=0;points=[[0,0.5],[1,0.5]];portConstraint=eastwest;" parent="OOa8Zx6JFRRjNTfHdb-P-61" vertex="1">
          <mxGeometry y="26" width="420" height="26" as="geometry" />
        </mxCell>
        <mxCell id="OOa8Zx6JFRRjNTfHdb-P-30" value="itemTitle" style="text;strokeColor=none;fillColor=none;align=left;verticalAlign=top;spacingLeft=4;spacingRight=4;overflow=hidden;rotatable=0;points=[[0,0.5],[1,0.5]];portConstraint=eastwest;" parent="OOa8Zx6JFRRjNTfHdb-P-61" vertex="1">
          <mxGeometry y="52" width="420" height="26" as="geometry" />
        </mxCell>
        <mxCell id="OOa8Zx6JFRRjNTfHdb-P-31" value="dueDate" style="text;strokeColor=none;fillColor=none;align=left;verticalAlign=top;spacingLeft=4;spacingRight=4;overflow=hidden;rotatable=0;points=[[0,0.5],[1,0.5]];portConstraint=eastwest;" parent="OOa8Zx6JFRRjNTfHdb-P-61" vertex="1">
          <mxGeometry y="78" width="420" height="26" as="geometry" />
        </mxCell>
        <mxCell id="OOa8Zx6JFRRjNTfHdb-P-32" value="loanDate" style="text;strokeColor=none;fillColor=none;align=left;verticalAlign=top;spacingLeft=4;spacingRight=4;overflow=hidden;rotatable=0;points=[[0,0.5],[1,0.5]];portConstraint=eastwest;" parent="OOa8Zx6JFRRjNTfHdb-P-61" vertex="1">
          <mxGeometry y="104" width="420" height="26" as="geometry" />
        </mxCell>
        <mxCell id="S5NBLpRcLbp1XvmpKD1v-35" value="LOAN_PERIOD = 2" style="text;strokeColor=none;fillColor=none;align=left;verticalAlign=top;spacingLeft=4;spacingRight=4;overflow=hidden;rotatable=0;points=[[0,0.5],[1,0.5]];portConstraint=eastwest;" parent="OOa8Zx6JFRRjNTfHdb-P-61" vertex="1">
          <mxGeometry y="130" width="420" height="26" as="geometry" />
        </mxCell>
        <mxCell id="OOa8Zx6JFRRjNTfHdb-P-63" value="" style="line;strokeWidth=1;fillColor=none;align=left;verticalAlign=middle;spacingTop=-1;spacingLeft=3;spacingRight=3;rotatable=0;labelPosition=right;points=[];portConstraint=eastwest;" parent="OOa8Zx6JFRRjNTfHdb-P-61" vertex="1">
          <mxGeometry y="156" width="420" height="8" as="geometry" />
        </mxCell>
        <mxCell id="OOa8Zx6JFRRjNTfHdb-P-155" value="ItemOnLoan(customerId, itemTitle, dueDate) : ItemOnLoan" style="text;strokeColor=none;fillColor=none;align=left;verticalAlign=top;spacingLeft=4;spacingRight=4;overflow=hidden;rotatable=0;points=[[0,0.5],[1,0.5]];portConstraint=eastwest;" parent="OOa8Zx6JFRRjNTfHdb-P-61" vertex="1">
          <mxGeometry y="164" width="420" height="26" as="geometry" />
        </mxCell>
        <mxCell id="reEjAdABZrWmajp2sIy9-4" value="ItemOnLoan(customerId, itemTitle, dueDate, loanDate) : ItemOnLoan" style="text;strokeColor=none;fillColor=none;align=left;verticalAlign=top;spacingLeft=4;spacingRight=4;overflow=hidden;rotatable=0;points=[[0,0.5],[1,0.5]];portConstraint=eastwest;" parent="OOa8Zx6JFRRjNTfHdb-P-61" vertex="1">
          <mxGeometry y="190" width="420" height="26" as="geometry" />
        </mxCell>
        <mxCell id="OOa8Zx6JFRRjNTfHdb-P-154" value="ItemOnLoan(customerId, itemTitle, dueDate, loanDate) : ItemOnLoan" style="text;strokeColor=none;fillColor=none;align=left;verticalAlign=top;spacingLeft=4;spacingRight=4;overflow=hidden;rotatable=0;points=[[0,0.5],[1,0.5]];portConstraint=eastwest;" parent="OOa8Zx6JFRRjNTfHdb-P-61" vertex="1">
          <mxGeometry y="216" width="420" height="26" as="geometry" />
        </mxCell>
        <mxCell id="fvHBKpIhvFRIfqYmbVqE-0" value="addItemOnLoan() : ItemOnLoan" style="text;strokeColor=none;fillColor=none;align=left;verticalAlign=top;spacingLeft=4;spacingRight=4;overflow=hidden;rotatable=0;points=[[0,0.5],[1,0.5]];portConstraint=eastwest;" vertex="1" parent="OOa8Zx6JFRRjNTfHdb-P-61">
          <mxGeometry y="242" width="420" height="26" as="geometry" />
        </mxCell>
        <mxCell id="OOa8Zx6JFRRjNTfHdb-P-161" value="deleteItemOnLoan(itemOnLoan : ItemOnLoan) : ItemOnLoan" style="text;strokeColor=none;fillColor=none;align=left;verticalAlign=top;spacingLeft=4;spacingRight=4;overflow=hidden;rotatable=0;points=[[0,0.5],[1,0.5]];portConstraint=eastwest;" parent="OOa8Zx6JFRRjNTfHdb-P-61" vertex="1">
          <mxGeometry y="268" width="420" height="26" as="geometry" />
        </mxCell>
        <mxCell id="t2H_Y5Kgu8AQuPbzP4-B-1" value="isDueDatePassed(dueDate : Date Time) : Boolean" style="text;strokeColor=none;fillColor=none;align=left;verticalAlign=top;spacingLeft=4;spacingRight=4;overflow=hidden;rotatable=0;points=[[0,0.5],[1,0.5]];portConstraint=eastwest;" parent="OOa8Zx6JFRRjNTfHdb-P-61" vertex="1">
          <mxGeometry y="294" width="420" height="26" as="geometry" />
        </mxCell>
        <mxCell id="OOa8Zx6JFRRjNTfHdb-P-42" value="Customer" style="swimlane;fontStyle=1;align=center;verticalAlign=top;childLayout=stackLayout;horizontal=1;startSize=26;horizontalStack=0;resizeParent=1;resizeParentMax=0;resizeLast=0;collapsible=1;marginBottom=0;" parent="WIyWlLk6GJQsqaUBKTNV-1" vertex="1">
          <mxGeometry x="-1000" y="-1280" width="450" height="456" as="geometry" />
        </mxCell>
        <mxCell id="OOa8Zx6JFRRjNTfHdb-P-20" value="customerId" style="text;strokeColor=none;fillColor=none;align=left;verticalAlign=top;spacingLeft=4;spacingRight=4;overflow=hidden;rotatable=0;points=[[0,0.5],[1,0.5]];portConstraint=eastwest;" parent="OOa8Zx6JFRRjNTfHdb-P-42" vertex="1">
          <mxGeometry y="26" width="450" height="26" as="geometry" />
        </mxCell>
        <mxCell id="OOa8Zx6JFRRjNTfHdb-P-21" value="customerName" style="text;strokeColor=none;fillColor=none;align=left;verticalAlign=top;spacingLeft=4;spacingRight=4;overflow=hidden;rotatable=0;points=[[0,0.5],[1,0.5]];portConstraint=eastwest;" parent="OOa8Zx6JFRRjNTfHdb-P-42" vertex="1">
          <mxGeometry y="52" width="450" height="26" as="geometry" />
        </mxCell>
        <mxCell id="OOa8Zx6JFRRjNTfHdb-P-22" value="phoneNumber" style="text;strokeColor=none;fillColor=none;align=left;verticalAlign=top;spacingLeft=4;spacingRight=4;overflow=hidden;rotatable=0;points=[[0,0.5],[1,0.5]];portConstraint=eastwest;" parent="OOa8Zx6JFRRjNTfHdb-P-42" vertex="1">
          <mxGeometry y="78" width="450" height="26" as="geometry" />
        </mxCell>
        <mxCell id="OOa8Zx6JFRRjNTfHdb-P-24" value="dateOfBirth" style="text;strokeColor=none;fillColor=none;align=left;verticalAlign=top;spacingLeft=4;spacingRight=4;overflow=hidden;rotatable=0;points=[[0,0.5],[1,0.5]];portConstraint=eastwest;" parent="OOa8Zx6JFRRjNTfHdb-P-42" vertex="1">
          <mxGeometry y="104" width="450" height="26" as="geometry" />
        </mxCell>
        <mxCell id="OOa8Zx6JFRRjNTfHdb-P-26" value="email" style="text;strokeColor=none;fillColor=none;align=left;verticalAlign=top;spacingLeft=4;spacingRight=4;overflow=hidden;rotatable=0;points=[[0,0.5],[1,0.5]];portConstraint=eastwest;" parent="OOa8Zx6JFRRjNTfHdb-P-42" vertex="1">
          <mxGeometry y="130" width="450" height="26" as="geometry" />
        </mxCell>
        <mxCell id="OOa8Zx6JFRRjNTfHdb-P-25" value="address" style="text;strokeColor=none;fillColor=none;align=left;verticalAlign=top;spacingLeft=4;spacingRight=4;overflow=hidden;rotatable=0;points=[[0,0.5],[1,0.5]];portConstraint=eastwest;" parent="OOa8Zx6JFRRjNTfHdb-P-42" vertex="1">
          <mxGeometry y="156" width="450" height="26" as="geometry" />
        </mxCell>
        <mxCell id="S5NBLpRcLbp1XvmpKD1v-0" value="borrowedItems[0..*]" style="text;strokeColor=none;fillColor=none;align=left;verticalAlign=top;spacingLeft=4;spacingRight=4;overflow=hidden;rotatable=0;points=[[0,0.5],[1,0.5]];portConstraint=eastwest;" parent="OOa8Zx6JFRRjNTfHdb-P-42" vertex="1">
          <mxGeometry y="182" width="450" height="26" as="geometry" />
        </mxCell>
        <mxCell id="OOa8Zx6JFRRjNTfHdb-P-27" value="fines [0..*]" style="text;strokeColor=none;fillColor=none;align=left;verticalAlign=top;spacingLeft=4;spacingRight=4;overflow=hidden;rotatable=0;points=[[0,0.5],[1,0.5]];portConstraint=eastwest;" parent="OOa8Zx6JFRRjNTfHdb-P-42" vertex="1">
          <mxGeometry y="208" width="450" height="26" as="geometry" />
        </mxCell>
        <mxCell id="OOa8Zx6JFRRjNTfHdb-P-44" value="" style="line;strokeWidth=1;fillColor=none;align=left;verticalAlign=middle;spacingTop=-1;spacingLeft=3;spacingRight=3;rotatable=0;labelPosition=right;points=[];portConstraint=eastwest;" parent="OOa8Zx6JFRRjNTfHdb-P-42" vertex="1">
          <mxGeometry y="234" width="450" height="8" as="geometry" />
        </mxCell>
        <mxCell id="OOa8Zx6JFRRjNTfHdb-P-147" value="Customer(customerName,&#xa;phoneNumber, dateOfBirth, email, address) : Customer" style="text;strokeColor=none;fillColor=none;align=left;verticalAlign=top;spacingLeft=4;spacingRight=4;overflow=hidden;rotatable=0;points=[[0,0.5],[1,0.5]];portConstraint=eastwest;" parent="OOa8Zx6JFRRjNTfHdb-P-42" vertex="1">
          <mxGeometry y="242" width="450" height="44" as="geometry" />
        </mxCell>
        <mxCell id="OOa8Zx6JFRRjNTfHdb-P-148" value="Customer(customerId, customerName, &#xa;phoneNumber) : Customer" style="text;strokeColor=none;fillColor=none;align=left;verticalAlign=top;spacingLeft=4;spacingRight=4;overflow=hidden;rotatable=0;points=[[0,0.5],[1,0.5]];portConstraint=eastwest;" parent="OOa8Zx6JFRRjNTfHdb-P-42" vertex="1">
          <mxGeometry y="286" width="450" height="40" as="geometry" />
        </mxCell>
        <mxCell id="t2H_Y5Kgu8AQuPbzP4-B-0" value="addCustomer() : Customer" style="text;strokeColor=none;fillColor=none;align=left;verticalAlign=top;spacingLeft=4;spacingRight=4;overflow=hidden;rotatable=0;points=[[0,0.5],[1,0.5]];portConstraint=eastwest;" parent="OOa8Zx6JFRRjNTfHdb-P-42" vertex="1">
          <mxGeometry y="326" width="450" height="26" as="geometry" />
        </mxCell>
        <mxCell id="OOa8Zx6JFRRjNTfHdb-P-160" value="deleteCustomer(customer Customer) : Customer" style="text;strokeColor=none;fillColor=none;align=left;verticalAlign=top;spacingLeft=4;spacingRight=4;overflow=hidden;rotatable=0;points=[[0,0.5],[1,0.5]];portConstraint=eastwest;" parent="OOa8Zx6JFRRjNTfHdb-P-42" vertex="1">
          <mxGeometry y="352" width="450" height="26" as="geometry" />
        </mxCell>
        <mxCell id="OOa8Zx6JFRRjNTfHdb-P-158" value="borrowItem(itemToBorrow : ItemOnLoan) : borrowedItems" style="text;strokeColor=none;fillColor=none;align=left;verticalAlign=top;spacingLeft=4;spacingRight=4;overflow=hidden;rotatable=0;points=[[0,0.5],[1,0.5]];portConstraint=eastwest;fontStyle=0" parent="OOa8Zx6JFRRjNTfHdb-P-42" vertex="1">
          <mxGeometry y="378" width="450" height="26" as="geometry" />
        </mxCell>
        <mxCell id="OOa8Zx6JFRRjNTfHdb-P-174" value="returnItemOnLoan(itemOnLoan: ItemOnLoan) :borrowedItems" style="text;strokeColor=none;fillColor=none;align=left;verticalAlign=top;spacingLeft=4;spacingRight=4;overflow=hidden;rotatable=0;points=[[0,0.5],[1,0.5]];portConstraint=eastwest;" parent="OOa8Zx6JFRRjNTfHdb-P-42" vertex="1">
          <mxGeometry y="404" width="450" height="26" as="geometry" />
        </mxCell>
        <mxCell id="t2H_Y5Kgu8AQuPbzP4-B-16" value="payFine() : fines[0..*]" style="text;strokeColor=none;fillColor=none;align=left;verticalAlign=top;spacingLeft=4;spacingRight=4;overflow=hidden;rotatable=0;points=[[0,0.5],[1,0.5]];portConstraint=eastwest;" parent="OOa8Zx6JFRRjNTfHdb-P-42" vertex="1">
          <mxGeometry y="430" width="450" height="26" as="geometry" />
        </mxCell>
        <mxCell id="OOa8Zx6JFRRjNTfHdb-P-65" value="Fine" style="swimlane;fontStyle=1;align=center;verticalAlign=top;childLayout=stackLayout;horizontal=1;startSize=26;horizontalStack=0;resizeParent=1;resizeParentMax=0;resizeLast=0;collapsible=1;marginBottom=0;" parent="WIyWlLk6GJQsqaUBKTNV-1" vertex="1">
          <mxGeometry x="380" y="-763" width="240" height="138" as="geometry" />
        </mxCell>
        <mxCell id="OOa8Zx6JFRRjNTfHdb-P-34" value="cost" style="text;strokeColor=none;fillColor=none;align=left;verticalAlign=top;spacingLeft=4;spacingRight=4;overflow=hidden;rotatable=0;points=[[0,0.5],[1,0.5]];portConstraint=eastwest;" parent="OOa8Zx6JFRRjNTfHdb-P-65" vertex="1">
          <mxGeometry y="26" width="240" height="26" as="geometry" />
        </mxCell>
        <mxCell id="OOa8Zx6JFRRjNTfHdb-P-36" value="isPaid" style="text;strokeColor=none;fillColor=none;align=left;verticalAlign=top;spacingLeft=4;spacingRight=4;overflow=hidden;rotatable=0;points=[[0,0.5],[1,0.5]];portConstraint=eastwest;" parent="OOa8Zx6JFRRjNTfHdb-P-65" vertex="1">
          <mxGeometry y="52" width="240" height="26" as="geometry" />
        </mxCell>
        <mxCell id="OOa8Zx6JFRRjNTfHdb-P-67" value="" style="line;strokeWidth=1;fillColor=none;align=left;verticalAlign=middle;spacingTop=-1;spacingLeft=3;spacingRight=3;rotatable=0;labelPosition=right;points=[];portConstraint=eastwest;" parent="OOa8Zx6JFRRjNTfHdb-P-65" vertex="1">
          <mxGeometry y="78" width="240" height="8" as="geometry" />
        </mxCell>
        <mxCell id="OOa8Zx6JFRRjNTfHdb-P-157" value="Fine(cost, isPaid) : Fine" style="text;strokeColor=none;fillColor=none;align=left;verticalAlign=top;spacingLeft=4;spacingRight=4;overflow=hidden;rotatable=0;points=[[0,0.5],[1,0.5]];portConstraint=eastwest;" parent="OOa8Zx6JFRRjNTfHdb-P-65" vertex="1">
          <mxGeometry y="86" width="240" height="26" as="geometry" />
        </mxCell>
        <mxCell id="OOa8Zx6JFRRjNTfHdb-P-162" value="deleteFine(fine : Fine) : Fine" style="text;strokeColor=none;fillColor=none;align=left;verticalAlign=top;spacingLeft=4;spacingRight=4;overflow=hidden;rotatable=0;points=[[0,0.5],[1,0.5]];portConstraint=eastwest;" parent="OOa8Zx6JFRRjNTfHdb-P-65" vertex="1">
          <mxGeometry y="112" width="240" height="26" as="geometry" />
        </mxCell>
        <mxCell id="reEjAdABZrWmajp2sIy9-0" style="edgeStyle=orthogonalEdgeStyle;rounded=0;orthogonalLoop=1;jettySize=auto;html=1;endArrow=none;endFill=0;" parent="WIyWlLk6GJQsqaUBKTNV-1" source="OOa8Zx6JFRRjNTfHdb-P-148" edge="1">
          <mxGeometry relative="1" as="geometry">
            <mxPoint x="160" y="-1070" as="targetPoint" />
          </mxGeometry>
        </mxCell>
        <mxCell id="reEjAdABZrWmajp2sIy9-1" value="returns &amp;gt;&amp;nbsp;" style="edgeLabel;html=1;align=center;verticalAlign=middle;resizable=0;points=[];" parent="reEjAdABZrWmajp2sIy9-0" vertex="1" connectable="0">
          <mxGeometry x="0.0136" y="37" relative="1" as="geometry">
            <mxPoint x="-35" y="27" as="offset" />
          </mxGeometry>
        </mxCell>
        <mxCell id="reEjAdABZrWmajp2sIy9-3" value="0..1" style="edgeLabel;html=1;align=center;verticalAlign=middle;resizable=0;points=[];" parent="reEjAdABZrWmajp2sIy9-0" vertex="1" connectable="0">
          <mxGeometry x="0.9537" y="9" relative="1" as="geometry">
            <mxPoint x="-3" as="offset" />
          </mxGeometry>
        </mxCell>
        <mxCell id="reEjAdABZrWmajp2sIy9-7" value="1..*" style="edgeLabel;html=1;align=center;verticalAlign=middle;resizable=0;points=[];" parent="reEjAdABZrWmajp2sIy9-0" vertex="1" connectable="0">
          <mxGeometry x="-0.927" y="10" relative="1" as="geometry">
            <mxPoint as="offset" />
          </mxGeometry>
        </mxCell>
      </root>
    </mxGraphModel>
  </diagram>
</mxfile>
